# xmcd
#
# Track frame offsets:
#	150
#	17845
#	32422
#	48959
#	73684
#	89877
#	105227
#	122190
#	139798
#	155665
#	172952
#	194572
#	211510
#
# Disc length: 3006 seconds
#
# Revision: 1
# Processed by: cddbd v1.4PL0 Copyright (c) Steve Scherf et al.
# Submitted via: audiograbber 1.80
#
DISCID=af0bbc0d
DTITLE=Cecilia Echenique - Brasil Amado
DYEAR=1900
DGENRE=
TTITLE0=Ilumina
TTITLE1=La Distancia
TTITLE2=La medida de la pasion
TTITLE3=Construccion
TTITLE4=Danza de la Soledad
TTITLE5=Mama Africa
TTITLE6=Aguas de Marzo
TTITLE7=Desde que el samba es samba
TTITLE8=Mujer de la vida
TTITLE9=Lo que vendrá
TTITLE10=Insensatez
TTITLE11=Las rosas no hablan
TTITLE12=Tema de amor de Gabriela
EXTD=
EXTT0=
EXTT1=
EXTT2=
EXTT3=
EXTT4=
EXTT5=
EXTT6=
EXTT7=
EXTT8=
EXTT9=
EXTT10=
EXTT11=
EXTT12=
PLAYORDER=
